<svg width="60" height="60" viewBox="0 0 60 60" fill="none" xmlns="http://www.w3.org/2000/svg">
<rect width="60" height="60" rx="12" fill="#F3F4F6"/>
<path d="M36.4363 23.3545L23.5636 36.6455" stroke="#5A3EE5" stroke-width="4" stroke-linecap="round" stroke-linejoin="round"/>
<path d="M23.5636 23.3545L36.4363 36.6455" stroke="#5A3EE5" stroke-width="4" stroke-linecap="round" stroke-linejoin="round"/>
<path d="M43.75 22.5C43.75 25.8137 40.0637 28.5 35.75 28.5C31.4363 28.5 27.75 25.8137 27.75 22.5C27.75 19.1863 31.4363 16.5 35.75 16.5C40.0637 16.5 43.75 19.1863 43.75 22.5Z" stroke="#5A3EE5" stroke-width="2"/>
<path d="M32.25 37.5C32.25 40.8137 28.5637 43.5 24.25 43.5C19.9363 43.5 16.25 40.8137 16.25 37.5C16.25 34.1863 19.9363 31.5 24.25 31.5C28.5637 31.5 32.25 34.1863 32.25 37.5Z" stroke="#5A3EE5" stroke-width="2"/>
</svg>
