<svg role="img" width="60" height="60" viewBox="0 0 60 60" xmlns="http://www.w3.org/2000/svg">
    <title>Cloud-x Logo</title>
    <path d="M49.2,29.3C49.2,20.1,41.8,12.7,32.6,12.7c-6.8,0-12.7,4.2-15.1,10c-1.4-0.8-3-1.2-4.8-1.2c-4.1,0-7.5,3.4-7.5,7.5 c0,0.2,0,0.3,0,0.5c-2.5-0.9-5.3,0.1-6.9,2.1s-1.6,4.9,0,6.9c1.6,2,4.1,3.2,6.9,3.2h41.4c5.2,0,9.4-4.2,9.4-9.4 C58.6,33.2,54.4,29.3,49.2,29.3z" fill="#E5E7EB"/>
    <text x="30" y="35" font-family="monospace, sans-serif" font-size="20" font-weight="bold" fill="#3B82F6" text-anchor="middle">X</text>
</svg>
