<svg width="60" height="60" viewBox="0 0 60 60" fill="none" xmlns="http://www.w3.org/2000/svg">
<path d="M42.5 27.5C42.5 23.36 39.14 20 35 20C31.425 20 28.6 22.45 27.8 25.75C27.675 26.35 27.125 26.95 26.525 27C25.825 27.05 25.175 26.65 24.875 26C23.975 24.1 21.625 22.5 18.75 22.5C14.375 22.5 10.875 26 10.875 30.375C10.875 34.75 14.375 38.25 18.75 38.25H40C43.45 38.25 46.25 35.45 46.25 32C46.25 29.15 44.525 26.85 42.025 26.1C42.325 26.75 42.5 27.125 42.5 27.5Z" fill="#3B82F6"/>
<path d="M22.5 35L20 37.5L22.5 40" stroke="white" stroke-width="2" stroke-linecap="round" stroke-linejoin="round"/>
<path d="M30 35L32.5 37.5L30 40" stroke="white" stroke-width="2" stroke-linecap="round" stroke-linejoin="round"/>
<path d="M25 42.5L27.5 32.5" stroke="white" stroke-width="2" stroke-linecap="round" stroke-linejoin="round"/>
</svg>
