<svg width="100" height="100" viewBox="0 0 100 100" fill="none" xmlns="http://www.w3.org/2000/svg">
<path d="M72.1667 59.1667C69.5833 59.1667 67.5 57.0833 67.5 54.5C67.5 51.9167 69.5833 49.8333 72.1667 49.8333C74.75 49.8333 76.8333 51.9167 76.8333 54.5C76.8333 57.0833 74.75 59.1667 72.1667 59.1667ZM72.1667 51.1667C70.3333 51.1667 68.8333 52.6667 68.8333 54.5C68.8333 56.3333 70.3333 57.8333 72.1667 57.8333C74 57.8333 75.5 56.3333 75.5 54.5C75.5 52.6667 74 51.1667 72.1667 51.1667Z" fill="#24292e"/>
<path d="M70.5 45.3333L60.5 35.3333L50.5 45.3333L40.5 35.3333L29.5 46.3333L20.5 37.3333" stroke="#24292e" stroke-width="2" stroke-linecap="round" stroke-linejoin="round"/>
<path d="M20.5 62.3333L29.5 53.3333L40.5 64.3333L50.5 54.3333L60.5 64.3333L70.5 54.3333L79.5 63.3333" stroke="#24292e" stroke-width="2" stroke-linecap="round" stroke-linejoin="round"/>
<path d="M50 2.5C23.75 2.5 2.5 23.75 2.5 50C2.5 76.25 23.75 97.5 50 97.5C76.25 97.5 97.5 76.25 97.5 50C97.5 23.75 76.25 2.5 50 2.5ZM50 95C25.1667 95 5 74.8333 5 50C5 25.1667 25.1667 5 50 5C74.8333 5 95 25.1667 95 50C95 74.8333 74.8333 95 50 95Z" fill="#24292e"/>
</svg>
