<svg width="60" height="60" viewBox="0 0 60 60" fill="none" xmlns="http://www.w3.org/2000/svg">
<rect width="60" height="60" rx="12" fill="url(#paint0_linear_1_2)"/>
<path d="M41 23C41 19.6863 38.3137 17 35 17C31.6863 17 29 19.6863 29 23V37C29 40.3137 31.6863 43 35 43C38.3137 43 41 40.3137 41 37" stroke="white" stroke-width="4" stroke-linecap="round" stroke-linejoin="round"/>
<path d="M19 23C19 19.6863 21.6863 17 25 17C28.3137 17 31 19.6863 31 23V37C31 40.3137 28.3137 43 25 43C21.6863 43 19 40.3137 19 37" stroke="white" stroke-width="4" stroke-linecap="round" stroke-linejoin="round"/>
<defs>
<linearGradient id="paint0_linear_1_2" x1="0" y1="0" x2="60" y2="60" gradientUnits="userSpaceOnUse">
<stop stop-color="#2563EB"/>
<stop offset="1" stop-color="#4F46E5"/>
</linearGradient>
</defs>
</svg>
